<?xml version="1.0" standalone="no"?>
<!DOCTYPE svg PUBLIC "-//W3C//DTD SVG 20010904//EN"
 "http://www.w3.org/TR/2001/REC-SVG-20010904/DTD/svg10.dtd">
<svg version="1.0" xmlns="http://www.w3.org/2000/svg"
 width="256.000000pt" height="256.000000pt" viewBox="0 0 256.000000 256.000000"
 preserveAspectRatio="xMidYMid meet">
<metadata>
Created by potrace 1.11, written by Peter Selinger 2001-2013
</metadata>
<g transform="translate(0.000000,256.000000) scale(0.100000,-0.100000)"
fill="#000000" stroke="none">
<path d="M1230 2547 c-28 -14 -50 -51 -50 -85 0 -28 25 -78 42 -85 20 -8 -125
-143 -224 -210 -48 -32 -131 -80 -186 -107 -98 -49 -345 -138 -395 -142 -21
-2 -24 -5 -14 -17 20 -24 111 -78 177 -105 l63 -26 638 0 c357 0 649 4 661 9
33 13 62 24 68 25 14 3 128 78 143 93 15 18 15 19 -1 20 -21 2 -190 50 -217
62 -11 5 -38 16 -60 24 -93 35 -276 131 -283 149 -2 4 -8 8 -13 8 -18 0 -105
67 -178 137 l-75 71 24 20 c34 28 36 109 3 144 -26 28 -84 35 -123 15z"/>
<path d="M691 1670 c-4 -3 -7 -45 -6 -95 1 -83 -1 -92 -24 -112 -13 -13 -32
-23 -41 -23 -9 0 -20 -3 -23 -7 -6 -5 -103 -42 -110 -41 -1 0 -20 -5 -42 -11
-22 -5 -56 -13 -75 -16 -19 -3 -42 -8 -50 -10 -25 -7 -84 -18 -102 -19 -10 0
-18 -6 -18 -12 0 -19 78 -82 140 -112 l55 -27 885 0 885 0 56 27 c61 29 147
103 136 115 -8 7 -10 8 -72 18 -22 3 -58 11 -80 17 -22 5 -51 12 -65 14 -93
16 -259 84 -261 107 -1 6 -3 48 -4 92 -1 44 -3 85 -4 91 -1 8 -147 12 -193 5
-5 0 -8 -44 -8 -96 l0 -95 -390 0 -390 0 0 95 c0 52 -3 96 -7 96 -24 4 -186 3
-192 -1z"/>
<path d="M494 1081 c-2 -2 -4 -48 -4 -101 l0 -96 -79 -52 c-95 -63 -239 -133
-338 -164 -40 -13 -73 -26 -73 -31 0 -16 81 -84 136 -112 l59 -30 1075 0 c591
0 1085 3 1098 7 78 24 206 118 186 137 -5 5 -38 19 -74 31 -96 32 -234 99
-327 160 l-82 54 -3 100 -3 101 -95 0 -95 0 -3 -97 -3 -98 -589 0 -590 0 0 95
c0 52 -3 96 -7 96 -23 4 -185 4 -189 0z"/>
<path d="M297 385 c-2 -5 -3 -93 -3 -195 l1 -185 985 0 985 0 0 180 c1 99 -1
187 -3 195 -2 12 -20 15 -90 14 -48 -1 -92 -2 -97 -3 -7 -1 -11 -36 -10 -93
l0 -93 -242 -3 -242 -2 -3 97 -3 98 -295 0 -295 0 -3 -98 -3 -97 -242 2 -242
3 -1 85 c-1 47 -2 90 -3 95 -1 7 -38 11 -96 11 -56 0 -96 -5 -98 -11z"/>
</g>
</svg>
